<svg width="198" height="178" viewBox="0 0 198 178" fill="none" xmlns="http://www.w3.org/2000/svg">
<g id="Group 10">
<g id="Group 6">
<path id="Star 1" d="M39.5 89.5709L42.506 98.5239L42.6204 98.8647H42.98H52.6609L44.8431 104.361L44.538 104.576L44.6567 104.93L47.6516 113.85L39.7876 108.32L39.5 108.118L39.2124 108.32L31.3484 113.85L34.3433 104.93L34.462 104.576L34.1569 104.361L26.3391 98.8647H36.02H36.3796L36.494 98.5239L39.5 89.5709Z" stroke="#5EC451"/>
</g>
<g id="Group 9">
<path id="Star 3" d="M106.5 132.571L109.506 141.524L109.62 141.865H109.98H119.661L111.843 147.361L111.538 147.576L111.657 147.93L114.652 156.85L106.788 151.32L106.5 151.118L106.212 151.32L98.3484 156.85L101.343 147.93L101.462 147.576L101.157 147.361L93.3391 141.865H103.02H103.38L103.494 141.524L106.5 132.571Z" stroke="#F05365"/>
</g>
<g id="Group 3">
<path id="Star 4" d="M102.5 1.5709L105.506 10.5239L105.62 10.8647H105.98H115.661L107.843 16.3615L107.538 16.576L107.657 16.9297L110.652 25.8497L102.788 20.3205L102.5 20.1183L102.212 20.3205L94.3484 25.8497L97.3433 16.9297L97.462 16.576L97.1569 16.3615L89.3391 10.8647H99.02H99.3796L99.494 10.5239L102.5 1.5709Z" stroke="#FAD37B"/>
</g>
<g id="Group 7">
<path id="Ellipse 1" d="M35.5 52.5C35.5 61.2965 27.7068 68.5 18 68.5C8.29317 68.5 0.5 61.2965 0.5 52.5C0.5 43.7035 8.29317 36.5 18 36.5C27.7068 36.5 35.5 43.7035 35.5 52.5Z" stroke="#FAD37B"/>
</g>
<g id="Group 8">
<path id="Ellipse 2" d="M47.5 159C47.5 169.271 40.0619 177.5 31 177.5C21.9381 177.5 14.5 169.271 14.5 159C14.5 148.729 21.9381 140.5 31 140.5C40.0619 140.5 47.5 148.729 47.5 159Z" stroke="#F05365"/>
</g>
<g id="Group 5">
<circle id="Ellipse 3" cx="175" cy="108" r="22.5" stroke="#F05365"/>
</g>
<g id="Group 4">
<path id="Star 2" d="M168.5 16.4489L172.858 28.3012L172.978 28.6287H173.327H187.244L176.04 35.8219L175.703 36.0387L175.841 36.4152L180.154 48.1458L168.77 40.8366L168.5 40.6632L168.23 40.8366L156.846 48.1458L161.159 36.4152L161.297 36.0387L160.96 35.8219L149.756 28.6287H163.673H164.022L164.142 28.3012L168.5 16.4489Z" stroke="#49A09D"/>
</g>
</g>
</svg>
